<?xml version="1.0" encoding="UTF-8"?>
<!DOCTYPE svg PUBLIC "-//W3C//DTD SVG 1.1//EN" "http://www.w3.org/Graphics/SVG/1.1/DTD/svg11.dtd">
<!-- Creator: CorelDRAW 2020 (64-Bit) -->
<svg xmlns="http://www.w3.org/2000/svg" xml:space="preserve" width="76.4689in" height="28.0283in" version="1.1" style="shape-rendering:geometricPrecision; text-rendering:geometricPrecision; image-rendering:optimizeQuality; fill-rule:evenodd; clip-rule:evenodd"
viewBox="0 0 76468.9 28028.34"
 xmlns:xlink="http://www.w3.org/1999/xlink"
 xmlns:xodm="http://www.corel.com/coreldraw/odm/2003">
 <defs>
  <style type="text/css">
   <![CDATA[
    .fil1 {fill:#555656}
    .fil0 {fill:#75BE41}
    .fil2 {fill:#555656;fill-rule:nonzero}
   ]]>
  </style>
 </defs>
 <g id="Слой_x0020_1">
  <metadata id="CorelCorpID_0Corel-Layer"/>
  <path class="fil0" d="M15088.07 4202.36c3001.79,-953.58 4427.26,3792.82 1345.11,4750.12 -2996.52,930.7 -4857.22,-3634.37 -1345.11,-4750.12zm-1111.86 23511.22l-15.76 -13186.96c-104.98,-901.37 -667.69,-996.2 -1474.57,-1292.16 -983.51,-360.77 -2986.03,-1508.3 -3905.71,-1162.9 -4003.01,1503.46 -3837.65,-4855.24 -311.63,-3766.39 802.22,247.71 968.09,652.36 1271.86,1307.66 313.96,677.37 21.72,378.87 1722.03,1047.59 4418.71,1737.88 4112.27,1820.49 8175.52,251.21 501.6,-193.73 1427.15,-481.26 1876.07,-720.34 699,-372.17 432.03,-964.07 1185.83,-1551.83 1376.33,-1073.08 3132.04,-57.09 3306.46,1344.33 196.84,1581.37 -1219.82,2777.44 -2913.78,2123.39 -959.93,-370.57 -2304.08,452.02 -3909.38,1076.15 -1904.53,740.37 -1573.51,570.05 -1573.51,3790.36 0,3519.46 112.8,7229.28 -27.2,10725.55 1363.85,-213.69 8279.17,-3757.28 9637.66,-4631.1 3956.63,-2545.02 5639.53,-8005.11 2917.62,-12203.28 -588.54,-907.72 -881.46,-1122.22 -1612.68,-1890.24l-7256.14 -7063.66c-3188.14,-2515.78 -7263.01,-2534.18 -10584.37,-115.22l-3664.95 3500.2c-3493.94,3481.76 -9014.79,7157.89 -5907.58,13873.69 1535.25,3318.17 4925.15,4880.5 7999.02,6334.26 1353.74,640.19 3680.15,1842.26 5065.2,2209.68z"/>
  <g id="_2270325355824">
   <path class="fil1" d="M62996.53 9099.76c1445.51,-120.07 3507.48,-245.93 3417.17,1526.09 -79.95,1568.75 -1936.27,1484.66 -3413.33,1340.11l-3.85 -2866.21zm2983.53 4090.31c0.3,-0.3 3341.88,-1877.97 1299.15,-4341.87 -1262.07,-1522.2 -3465.8,-978.6 -5741.09,-1080.83l-26.46 8925.02 1499.67 19.57 -19.74 -3412.19c1779.72,-146.15 1485.26,-78.3 2219.07,1176.59 427.26,730.56 812.19,1503.9 1323.29,2189.22l1532.48 38.94 -2086.36 -3514.46z"/>
   <path class="fil1" d="M56459.39 9367.03l1210.11 3854.03 -2420.14 7.82 1210.03 -3861.85zm-3964.84 7277.42l1564.23 51.87 670.06 -2214.37 3471.07 -0.72 719.65 2186.47 1486.48 0.17 -3209.34 -8871.28 -1401.12 -5.58 -3301.04 8853.44z"/>
   <path class="fil1" d="M48014.48 9071.72c1534.51,-3.26 3302.13,-172.11 3185.74,1705.73 -105.95,1709.58 -1592.39,1368.15 -3169.51,1428.77l-16.23 -3134.5zm20.42 4408.75c2343.07,72.72 5192.45,-367.35 4558.76,-3519.23 -502.17,-2497.76 -3550.18,-2301.38 -6014.41,-2149.18l-15.69 8863.29 1453 -34.46 18.35 -3160.42z"/>
   <path class="fil1" d="M35696.6 9114.43l2585.07 -42.79 46.55 7620.96 1359.86 -18.6c301.78,-981.18 109.41,-6223.01 70.18,-7616.02l2556.78 13.02 82.91 -1283.84 -6680.67 1.9 -20.67 1325.36z"/>
   <path class="fil1" d="M74442.6 9881.3c350.69,-333.74 1576.11,-1632.72 1824.07,-2104.03l-1657.5 54.07c-375.26,519.3 -688.15,671.7 -1063.07,1159.38 -2623.7,3412.9 -3158.48,2145.76 -904.78,5074.71 204.33,265.55 225.55,346.55 437.57,604.78 1366.37,1663.79 1281.06,2164.31 3287.04,1984.72 -283.13,-516.17 -549.57,-740.87 -912.14,-1215.61l-1877.5 -2301.34c-326.64,-436.09 -628.2,-744.3 -930.24,-1164.15l1796.55 -2092.53z"/>
   <polygon class="fil1" points="33172.12,16694.67 34682.11,16709.26 34676.91,7784.2 33212.15,7763.87 "/>
   <polygon class="fil1" points="69439.97,16671.13 70794.76,16638.44 70805.2,7808.93 69360.28,7803.31 "/>
   <path class="fil2" d="M34815.28 18562.96c-133.22,-68.61 -355.3,-141.29 -650.02,-141.29 -613.7,0 -1005.36,367.39 -1005.36,855.95 0,419.9 310.91,698.51 771.19,884.24 367.39,153.43 524.87,314.93 524.87,577.34 0,278.61 -205.93,468.35 -573.33,468.35 -254.38,0 -504.71,-80.75 -670.22,-181.67l-104.98 391.62c149.37,100.96 456.22,185.77 746.92,185.77 694.45,0 1078.04,-387.64 1078.04,-904.44 0,-423.92 -238.24,-694.45 -734.83,-912.48 -391.66,-169.58 -565.25,-298.78 -565.25,-561.24 0,-197.82 153.43,-411.83 520.81,-411.83 254.39,0 448.19,80.75 549.1,137.28l113.05 -387.6zm2454.85 -96.9l-2135.87 0 0 399.73 831.73 0 0 2693.04 468.35 0 0 -2693.04 835.79 0 0 -399.73zm1643.29 0l-573.33 0 -944.78 3092.78 480.44 0 266.48 -908.46 944.78 0 278.61 908.46 492.58 0 -944.78 -3092.78zm-698.51 1825l246.31 -812.91c52.47,-191.09 100.92,-417.87 145.35,-608.33l8.07 0c44.39,190.46 96.9,409.17 153.43,611.72l242.25 809.53 -795.41 0zm3395.57 -209.95c310.91,-117.11 553.16,-387.6 553.16,-783.32 0,-250.32 -84.77,-464.29 -246.31,-605.63 -193.8,-173.59 -476.43,-246.27 -880.18,-246.27 -278.57,0 -553.12,28.24 -750.98,64.6l0 3048.34 464.33 0 0 -1308.15 282.63 0c327.02,0 476.43,157.44 561.19,569.27 76.73,379.53 149.41,650.06 193.8,738.89l484.54 0c-60.58,-117.11 -137.27,-436.05 -230.16,-839.8 -72.68,-327.06 -201.87,-545.09 -432.04,-629.85l0 -8.07zm-859.97 -181.71l0 -1061.89c56.52,-16.15 169.57,-28.24 327.02,-28.24 335.14,0 617.76,137.28 617.76,536.97 0,331.12 -242.25,553.16 -629.85,553.16l-314.93 0zm3775.09 -1433.33l-2135.87 0 0 399.73 831.73 0 0 2693.04 468.35 0 0 -2693.04 835.78 0 0 -399.73zm1695.76 -145.35l-468.35 0 0 3238.13 468.35 0 0 -3238.13zm1506.02 964.98c-589.48,0 -1049.76,423.96 -1049.76,1174.94 0,718.68 440.07,1142.64 1017.45,1142.64 500.65,0 1041.68,-343.21 1041.68,-1174.94 0,-682.36 -399.74,-1142.64 -1009.38,-1142.64zm528.89 1154.73c0,444.13 -209.95,811.56 -549.1,811.56 -343.17,0 -549.1,-367.44 -549.1,-803.49 0,-383.54 153.43,-811.52 553.16,-811.52 391.62,0 545.04,436.06 545.04,803.44zm2378.16 698.51c-104.98,44.39 -234.18,88.83 -419.9,88.83 -387.6,0 -674.29,-290.7 -674.29,-779.26 0,-436.05 242.25,-791.35 678.3,-791.35 189.78,0 318.98,48.45 399.73,88.82l92.84 -359.36c-96.9,-48.45 -282.63,-100.92 -496.59,-100.92 -714.66,0 -1150.71,508.73 -1150.71,1183.01 0,694.45 419.9,1134.56 1061.89,1134.56 258.4,0 468.35,-64.64 573.33,-113.09l-64.6 -351.24zm2042.98 -948.84c0,-472.37 -181.67,-904.4 -835.74,-904.4 -298.78,0 -561.24,84.77 -718.68,185.72l96.9 310.91c141.29,-92.88 343.17,-153.43 541.02,-153.43 448.15,0 448.15,331.08 448.15,496.59 -763.07,0 -1243.56,274.55 -1243.56,827.71 0,343.17 238.23,650.06 654.07,650.06 278.61,0 496.64,-129.24 621.78,-302.83l12.13 0 32.3 258.4 423.92 0c-28.24,-145.35 -32.3,-339.15 -32.3,-528.94l0 -839.8zm-456.22 617.76c0,258.4 -209.95,452.2 -464.34,452.2 -173.59,0 -327.02,-109.04 -327.02,-355.3 0,-395.67 423.92,-464.33 791.35,-464.33l0 367.44zm1514.09 -2487.15l-468.35 0 0 3238.13 468.35 0 0 -3238.13zm3415.78 2680.95c238.19,-282.63 367.39,-682.36 440.07,-1142.64l-419.9 0c-44.39,327.06 -125.14,637.93 -262.46,855.95 -189.74,-218.02 -444.13,-532.95 -654.07,-787.29l0 -16.15c456.26,-246.31 629.85,-504.71 629.85,-823.69 0,-415.84 -306.85,-666.17 -694.45,-666.17 -516.8,0 -787.29,383.54 -787.29,767.13 0,222.04 96.9,452.2 246.26,646l-4.02 12.13c-343.21,201.87 -569.31,492.57 -569.31,892.27 0,452.2 327.06,864.07 940.76,864.07 327.02,0 605.63,-105.02 835.74,-323.04 105.02,121.13 173.63,197.86 250.37,278.61l545.04 0 -496.59 -557.18zm-1057.87 250.33c-343.17,0 -569.27,-262.46 -569.27,-585.46 0,-282.63 181.67,-464.3 331.08,-569.27 286.64,343.17 581.4,690.39 775.2,912.48 -84.81,96.9 -254.39,242.25 -537.01,242.25zm68.66 -2515.39c226.1,0 314.93,193.8 314.93,371.45 0,234.18 -161.5,395.68 -436.05,565.25 -125.19,-161.5 -214.01,-323 -214.01,-524.88 0,-205.93 104.97,-411.83 335.13,-411.83zm4958.11 1158.79l-985.19 0 0 375.47 532.99 0 0 872.1c-68.66,36.36 -209.99,64.6 -411.87,64.6 -605.63,0 -1029.55,-411.83 -1029.55,-1191.05 0,-783.32 456.22,-1183.01 1090.13,-1183.01 282.63,0 468.35,52.46 613.7,117.07l104.98 -383.54c-153.43,-76.73 -415.84,-129.2 -718.68,-129.2 -924.61,0 -1582.7,597.55 -1582.7,1598.85 0,492.58 169.57,1554.46 1505.97,1554.46 367.44,0 706.59,-88.82 880.22,-157.48l0 -1538.27zm1728.06 -1473.71c-791.35,0 -1332.38,637.93 -1332.38,1610.99 0,932.65 504.67,1570.61 1292,1570.61 750.98,0 1328.36,-545.09 1328.36,-1619.06 0,-888.3 -468.35,-1562.54 -1287.99,-1562.54zm-16.15 383.54c553.16,0 811.56,605.63 811.56,1195.15 0,658.09 -278.61,1219.33 -819.64,1219.33 -532.95,0 -815.57,-573.33 -815.57,-1199.17 0,-605.63 254.34,-1215.31 823.65,-1215.31zm4106.17 528.93l-20.21 298.78 -8.07 0c-92.84,-177.65 -278.57,-347.23 -609.65,-347.23 -484.5,0 -940.76,419.9 -940.76,1174.94 0,621.78 359.36,1086.07 884.24,1086.07 286.64,0 504.67,-137.28 617.72,-327.02l8.08 0 0 213.96c0,504.71 -258.4,706.59 -621.78,706.59 -250.33,0 -464.29,-76.69 -601.57,-157.44l-104.98 363.37c173.59,104.98 444.13,161.5 702.53,161.5 1053.81,0 1090.13,-819.63 1090.13,-1263.76l0 -1267.78c0,-298.78 8.07,-484.54 20.21,-641.99l-415.89 0zm-72.68 1296.06c0,371.45 -242.25,557.18 -484.5,557.18 -347.22,0 -545.09,-310.91 -545.09,-746.96 0,-476.43 226.1,-783.28 549.1,-783.28 286.69,0 480.48,242.25 480.48,537.01l0 436.05zm1534.26 -2309.5l-468.35 0 0 3238.13 468.35 0 0 -3238.13zm1506.02 964.98c-589.48,0 -1049.76,423.96 -1049.76,1174.94 0,718.68 440.07,1142.64 1017.45,1142.64 500.65,0 1041.68,-343.21 1041.68,-1174.94 0,-682.36 -399.74,-1142.64 -1009.38,-1142.64zm528.89 1154.73c0,444.13 -209.95,811.56 -549.1,811.56 -343.17,0 -549.1,-367.44 -549.1,-803.49 0,-383.54 153.43,-811.52 553.16,-811.52 391.62,0 545.04,436.06 545.04,803.44zm1413.17 -795.37l0 -1324.35 -468.35 0 0 2644.59c0,201.87 -8.07,444.13 -16.15,593.54l399.73 0 24.22 -335.13 12.09 0c149.41,262.46 371.45,379.57 658.13,379.57 460.28,0 932.69,-379.57 932.69,-1191.09 0,-678.3 -351.28,-1126.49 -860.01,-1126.49 -310.91,0 -541.03,133.22 -674.29,359.36l-8.07 0zm0 597.55c0,-294.76 218.02,-581.4 512.78,-581.4 371.45,0 553.12,351.24 553.12,771.14 0,476.43 -197.81,795.41 -557.17,795.41 -306.85,0 -508.73,-266.48 -508.73,-549.1l0 -436.05zm3561.13 -52.51c0,-472.37 -181.67,-904.4 -835.74,-904.4 -298.78,0 -561.24,84.77 -718.68,185.72l96.9 310.91c141.29,-92.88 343.17,-153.43 541.03,-153.43 448.14,0 448.14,331.08 448.14,496.59 -763.07,0 -1243.55,274.55 -1243.55,827.71 0,343.17 238.23,650.06 654.07,650.06 278.61,0 496.64,-129.24 621.78,-302.83l12.13 0 32.3 258.4 423.92 0c-28.24,-145.35 -32.3,-339.15 -32.3,-528.94l0 -839.8zm-456.22 617.76c0,258.4 -209.95,452.2 -464.33,452.2 -173.59,0 -327.02,-109.04 -327.02,-355.3 0,-395.67 423.92,-464.33 791.35,-464.33l0 367.44zm1514.09 -2487.15l-468.35 0 0 3238.13 468.35 0 0 -3238.13z"/>
  </g>
 </g>
</svg>
